<?xml version="1.0" encoding="UTF-8" standalone="no"?>
<!-- Created with Inkscape (http://www.inkscape.org/) -->

<svg
   xmlns:dc="http://purl.org/dc/elements/1.1/"
   xmlns:cc="http://creativecommons.org/ns#"
   xmlns:rdf="http://www.w3.org/1999/02/22-rdf-syntax-ns#"
   xmlns:svg="http://www.w3.org/2000/svg"
   xmlns="http://www.w3.org/2000/svg"
   xmlns:sodipodi="http://sodipodi.sourceforge.net/DTD/sodipodi-0.dtd"
   xmlns:inkscape="http://www.inkscape.org/namespaces/inkscape"
   width="210mm"
   height="297mm"
   id="svg3148"
   version="1.1"
   inkscape:version="0.48.4 r9939"
   sodipodi:docname="galen-logo.svg">
  <defs
     id="defs3" />
  <sodipodi:namedview
     inkscape:document-units="mm"
     id="base"
     pagecolor="#ffffff"
     bordercolor="#666666"
     borderopacity="1.0"
     inkscape:pageopacity="0.0"
     inkscape:pageshadow="2"
     inkscape:zoom="5.6"
     inkscape:cx="312.76552"
     inkscape:cy="714.07312"
     inkscape:current-layer="layer1"
     showgrid="false"
     inkscape:window-width="1366"
     inkscape:window-height="715"
     inkscape:window-x="0"
     inkscape:window-y="25"
     inkscape:window-maximized="1" />
  <metadata
     id="metadata4">
    <rdf:RDF>
      <cc:Work
         rdf:about="">
        <dc:format>image/svg+xml</dc:format>
        <dc:type
           rdf:resource="http://purl.org/dc/dcmitype/StillImage" />
        <dc:title></dc:title>
      </cc:Work>
    </rdf:RDF>
  </metadata>
  <g
     inkscape:label="Layer 1"
     inkscape:groupmode="layer"
     id="layer1">
    <rect
       style="fill:#000000;fill-opacity:1;stroke:none"
       id="rect3385"
       width="80"
       height="80"
       x="294.28571"
       y="300.93362"
       ry="0" />
    <path
       style="fill:#3c3c3c;fill-opacity:1;stroke:#ffffff;stroke-opacity:1"
       d="m 363.46971,331.49286 c 0,0 0.1658,-0.33769 0.2072,-0.57442 0.044,-0.25179 -0.043,-0.66854 -0.043,-0.66854 l -8.3334,-8.30148 c 0,0 -0.6583,-0.57113 -1.0563,-0.55803 -0.4227,0.0139 -1.0803,0.66506 -1.0803,0.66506 l -7.6614,7.66141 c 0,0 -0.8101,0.68744 -0.76,1.25828 0.051,0.58084 0.8279,1.24319 0.8279,1.24319 l 8.7153,8.71528 8.8991,-8.89914 z"
       id="path2989-9-4"
       inkscape:connector-curvature="0"
       sodipodi:nodetypes="csccaccscccc"
       inkscape:export-filename="/Users/ishubin/workspace/my/galen-icon.png"
       inkscape:export-xdpi="757.73895"
       inkscape:export-ydpi="757.73895" />
    <path
       style="fill:#3c3c3c;fill-opacity:1;stroke:#ffffff;stroke-opacity:1"
       d="m 324.53781,369.7397 c -0.6105,0.0759 -1.8212,-0.29907 -1.8212,-0.29907 l -16.9412,-16.87019 c -0.2112,-0.31499 -0.3644,-1.62215 -0.2424,-2.321 0.1219,-0.69885 0.6206,-1.10839 1.7834,-2.37995 2.5941,-2.68157 3.7938,-3.91034 6.6733,-6.71817 l 20.2957,19.78229 -8.0534,8.06935 c 0,0 -1.0831,0.66074 -1.6942,0.73674 z"
       id="path2991-6-3"
       inkscape:connector-curvature="0"
       sodipodi:nodetypes="acczcccca"
       inkscape:export-filename="/Users/ishubin/workspace/my/galen-icon.png"
       inkscape:export-xdpi="757.73895"
       inkscape:export-ydpi="757.73895" />
    <path
       style="fill:#8e8e8e;fill-opacity:0.98039215999999996;stroke:#ffffff;stroke-width:0.9992126;stroke-miterlimit:4;stroke-opacity:1;stroke-dasharray:none"
       d="m 304.78371,350.85056 c -0.2571,-0.63452 -0.4983,-1.99251 -0.4983,-1.99251 l 0,-14.18149 c 0,0 0.076,-2.34203 0.4983,-3.41075 0.4049,-1.02565 1.8867,-2.71725 1.8867,-2.71725 l 15.1612,-15.16119 c 0,0 1.6166,-1.34525 2.5712,-1.74905 1.0734,-0.45399 3.4245,-0.70471 3.4245,-0.70471 l 13.2083,0 c 0,0 1.3756,0.2024 1.5888,0.74745 0.2014,0.51493 -0.6236,1.5371 -0.6236,1.5371 0,0 7.9539,-7.92908 -27.7369,27.70983 -6.8695,6.85954 -8.6656,8.46958 -8.7384,9.3131 -0.073,0.84351 -0.067,1.54762 0.2861,2.38452 -0.4397,-0.61656 -0.7711,-1.14136 -1.0279,-1.77505 z"
       id="path2993-9-1"
       inkscape:connector-curvature="0"
       sodipodi:nodetypes="accaccaccacszca"
       inkscape:export-filename="/Users/ishubin/workspace/my/galen-icon.png"
       inkscape:export-xdpi="757.73895"
       inkscape:export-ydpi="757.73895" />
    <path
       style="fill:#8e8e8e;fill-opacity:1;stroke:#ffffff;stroke-opacity:1"
       d="m 322.69981,369.43611 c 0,0 1.2224,0.38033 1.8391,0.30436 0.5982,-0.0737 1.659,-0.71939 1.659,-0.71939 l 37.0072,-37.00715 c 0.1226,-0.33147 0.3251,-0.62227 0.4373,-0.9676 0.075,-0.23243 0.033,-0.54179 -0.01,-0.80579 0,0 0.3722,0.77753 0.4839,1.19137 0.1024,0.3798 0.1661,1.16839 0.1661,1.16839 l 0,16.32174 c 0,0 -0.089,1.34591 -0.3524,1.95284 -0.2646,0.61064 -1.1911,1.60224 -1.1911,1.60224 l -16.8543,16.85424 c 0,0 -1.1268,0.86914 -1.7784,1.13245 -0.7271,0.2938 -2.3052,0.4698 -2.3052,0.4698 l -14.5639,0 c 0,0 -1.6433,-0.0929 -2.4156,-0.34844 -0.7644,-0.25291 -2.1247,-1.14906 -2.1247,-1.14906 z"
       id="path2987-1-7"
       inkscape:connector-curvature="0"
       sodipodi:nodetypes="caccscaccaccaccac"
       inkscape:export-filename="/Users/ishubin/workspace/my/galen-icon.png"
       inkscape:export-xdpi="757.73895"
       inkscape:export-ydpi="757.73895" />
  </g>
</svg>
