<?xml version="1.0" encoding="utf-8"?>
<!-- Generator: Adobe Illustrator 21.0.0, SVG Export Plug-In . SVG Version: 6.00 Build 0)  -->
<svg version="1.1" xmlns="http://www.w3.org/2000/svg" xmlns:xlink="http://www.w3.org/1999/xlink" x="0px" y="0px"
	 viewBox="0 0 128 128" style="enable-background:new 0 0 128 128;" xml:space="preserve">
<rect x="0" y="0" style="fill:#204C86;" width="128" height="128"/>
<g>
	<path style="fill:#59A5D2;" d="M118.542,43.536L102.93,27.899c-0.791-0.793-2.076-0.792-2.867,0.001L84.636,43.374
		c-0.787,0.79-0.788,2.068-0.001,2.858L102.323,64c0,0,15.665-14.541,16.599-19.294C119.007,44.276,118.852,43.846,118.542,43.536z"
		/>
	<path style="fill:#337DB8;" d="M102.296,65.365L83.938,46.925c-1.166-1.171-1.164-3.075,0.003-4.245l15.427-15.474
		c0.568-0.569,1.323-0.884,2.128-0.884h0.001c0.805,0,1.56,0.313,2.129,0.882l15.612,15.637c0.551,0.552,0.793,1.32,0.65,2.054
		c-0.968,4.925-15.268,18.314-16.896,19.825L102.296,65.365z M101.496,28.288L101.496,28.288c-0.279,0-0.541,0.109-0.738,0.306
		L85.332,44.067c-0.405,0.406-0.405,1.065-0.001,1.471l17.016,17.094c6.19-5.815,14.994-14.978,15.611-18.115
		c0.026-0.131-0.07-0.245-0.112-0.287l-15.612-15.637C102.038,28.396,101.776,28.288,101.496,28.288z"/>
</g>
<g>
	<path style="fill:#71C4F7;" d="M118.959,44.279C118.966,48.622,102.323,64,102.323,64L64,102.331c0,0-18.731,18.031-21.673,15.019
		c0.002,0.002,0.737,0.753,0.737,0.753c0.758,0.652,1.355,0.913,2.713,0.913h36.561c1.074,0,2.104-0.427,2.863-1.186l32.644-32.644
		c0.846-0.917,1.186-1.644,1.186-2.863L118.959,44.279z"/>
	<path style="fill:#337DB8;" d="M82.338,120H45.777c-1.507,0-2.353-0.291-3.354-1.151l-0.793-0.806c0,0-0.001-0.001-0.001-0.001
		l-0.002-0.003c0,0-0.001-0.001-0.001-0.001l1.397-1.382c0,0,0.003,0.003,0.008,0.008l0,0c0.011,0.013,1.465,1.029,10.607-6.448
		c4.963-4.058,9.635-8.548,9.682-8.593l38.309-38.318c6.34-5.86,16.352-16.175,16.349-19.024l0,0c0,0,0,0,0,0l1.965-0.003
		l0.073,38.045c0,1.431-0.392,2.388-1.447,3.531l-32.671,32.673C84.944,119.477,83.681,120,82.338,120z M45.55,118.032
		c0.072,0.002,0.148,0.003,0.227,0.003h36.561c0.819,0,1.59-0.319,2.169-0.899l32.644-32.644c0.691-0.75,0.899-1.243,0.899-2.168
		l-0.064-33.72c-3.979,5.802-12.821,14.107-14.996,16.117l-38.295,38.304C59.246,108.271,50.779,115.897,45.55,118.032z"/>
</g>
<g>
	<path style="fill:#59A5D2;" d="M64,102.331L25.653,63.986c-7.377,6.957-18.275,18.39-15.191,21.478l31.866,31.887
		C45.309,120.364,64,102.331,64,102.331z"/>
	<path style="fill:#337DB8;" d="M43.172,118.61c-0.635,0-1.157-0.178-1.543-0.568L9.766,86.159
		c-0.552-0.553-0.837-1.312-0.823-2.193c0.074-4.918,10.079-15.076,16.036-20.694l0.694-0.654l39.729,39.727l-0.72,0.695
		C58.316,109.18,47.789,118.61,43.172,118.61z M25.635,65.357c-9.194,8.754-14.683,15.692-14.727,18.639
		c-0.007,0.464,0.139,0.664,0.249,0.774l31.866,31.887c1.061,1.076,9.585-4.812,19.573-14.34L25.635,65.357z"/>
</g>
<g>
	<path style="fill:#71C4F7;" d="M25.653,63.986L79.972,9.674c0.255-0.255,0.074-0.691-0.286-0.691H45.629
		c-1.074,0-2.104,0.427-2.864,1.186L10.154,42.785c-0.759,0.759-1.186,1.789-1.186,2.863v37.371c0,0.665,0.072,0.975,0.667,1.57
		l0.826,0.876C7.306,82.178,18.846,70.832,25.653,63.986z"/>
	<path style="fill:#337DB8;" d="M9.753,86.145c-0.012-0.012-0.024-0.025-0.035-0.037l-0.797-0.844
		c-0.792-0.792-0.934-1.357-0.934-2.244V45.648c0-1.344,0.523-2.607,1.474-3.558L42.071,9.474C43.022,8.523,44.286,8,45.629,8
		h34.056c0.563,0,1.066,0.336,1.282,0.856c0.215,0.52,0.097,1.114-0.301,1.512L25.585,65.447
		c-5.014,5.036-16.74,16.814-14.43,19.321l0.021,0.022L9.753,86.145z M45.629,9.965c-0.819,0-1.589,0.319-2.169,0.899L10.849,43.48
		c-0.579,0.579-0.898,1.349-0.898,2.168V80.68c2.212-4.297,7.809-10.158,14.242-16.619l0.766-0.769L78.291,9.965H45.629z"/>
</g>
</svg>
